<?xml version="1.0" standalone="no"?>
<!DOCTYPE svg PUBLIC "-//W3C//DTD SVG 20010904//EN"
 "http://www.w3.org/TR/2001/REC-SVG-20010904/DTD/svg10.dtd">
<svg version="1.0" xmlns="http://www.w3.org/2000/svg"
 width="332.000000pt" height="332.000000pt" viewBox="0 0 332.000000 332.000000"
 preserveAspectRatio="xMidYMid meet">
<metadata>
Created by potrace 1.11, written by Peter Selinger 2001-2013
</metadata>
<g transform="translate(0.000000,332.000000) scale(0.100000,-0.100000)"
fill="#000000" stroke="none">
<path d="M120 3310 c0 -8 46 -15 73 -11 4 0 7 -3 7 -7 0 -17 29 -8 33 10 5 16
-2 18 -54 18 -33 0 -59 -4 -59 -10z"/>
<path d="M343 3188 c3 -73 11 -173 18 -223 15 -111 17 -328 2 -347 -6 -7 -11
-47 -12 -88 -1 -41 -4 -126 -6 -188 -6 -121 -6 -121 47 -155 38 -24 48 -21 48
11 0 16 3 32 7 36 4 4 8 13 9 19 0 7 2 23 3 37 l2 25 10 -25 11 -25 13 30 c7
17 14 23 14 15 1 -11 5 -9 15 5 12 18 33 119 28 139 -5 15 19 34 37 29 9 -2
23 3 30 11 8 9 10 16 5 16 -21 1 64 39 88 40 21 0 28 -6 33 -30 7 -33 1 -50
-19 -50 -14 0 -26 -30 -26 -67 0 -13 -4 -23 -10 -23 -5 0 -10 -6 -10 -13 0 -8
-9 -22 -19 -31 -16 -15 -18 -23 -10 -43 10 -26 -5 -93 -20 -93 -13 0 -29 -66
-24 -97 l5 -28 -31 33 c-17 18 -31 28 -31 21 0 -6 -8 -9 -20 -6 -11 3 -23 1
-26 -4 -3 -6 -15 -7 -25 -4 -18 6 -19 5 -7 -14 7 -12 16 -21 20 -21 3 0 14
-20 23 -45 14 -36 15 -48 5 -60 -21 -25 -43 -19 -38 10 8 37 -8 40 -28 5 -17
-27 -19 -28 -35 -14 -16 14 -20 14 -38 2 -12 -8 -18 -18 -14 -21 3 -4 2 -7 -4
-7 -6 0 -16 7 -23 15 -14 16 -40 20 -40 6 0 -5 14 -22 31 -38 17 -15 47 -43
67 -61 42 -39 70 -52 118 -52 26 0 34 -4 34 -18 0 -27 -35 -55 -59 -47 -12 4
-41 -4 -74 -19 -30 -15 -68 -26 -85 -26 -17 0 -34 -5 -38 -11 -4 -8 -9 -7 -15
2 -6 11 -9 10 -15 -4 -3 -9 -21 -24 -39 -33 -38 -18 -134 -110 -154 -148 -12
-22 -11 -28 8 -52 11 -15 21 -35 21 -46 0 -11 4 -17 9 -14 5 4 7 -4 4 -15 -5
-16 2 -29 25 -48 33 -27 33 -25 46 -201 1 -25 10 -59 18 -75 9 -17 19 -53 23
-80 8 -50 23 -82 56 -120 26 -30 35 -75 15 -75 -9 0 -16 4 -16 9 0 5 -18 29
-40 52 -22 24 -40 49 -40 56 0 7 -7 13 -15 13 -9 0 -17 14 -21 38 -3 20 -13
48 -21 61 -12 18 -16 57 -18 145 -1 118 -2 121 -26 126 -30 8 -59 -9 -59 -34
0 -15 5 -17 29 -13 29 6 29 5 33 -44 3 -48 -7 -73 -21 -52 -3 5 -17 12 -29 16
-52 13 -52 15 -52 -269 0 -292 -2 -284 63 -240 20 14 44 26 54 28 10 2 29 15
42 30 24 28 51 37 51 18 0 -5 7 -10 16 -10 11 0 15 -6 11 -19 -4 -15 2 -20 24
-23 15 -3 26 -1 23 4 -3 4 0 8 5 8 6 0 11 -5 11 -11 0 -6 8 -8 19 -4 17 5 21
0 26 -29 10 -52 1 -71 -37 -71 -18 -1 -95 -2 -170 -3 l-137 -2 0 -120 1 -120
48 0 c61 0 88 24 81 72 0 4 8 12 19 18 16 9 18 15 10 30 -6 11 -18 20 -27 20
-12 0 -13 3 -3 15 6 8 9 19 5 25 -6 10 33 14 101 10 17 -1 47 8 67 19 l37 21
6 -27 c13 -48 10 -346 -3 -368 -11 -19 -12 -18 -18 8 -5 19 -12 26 -22 23 -8
-3 -17 -6 -19 -6 -2 0 -4 -7 -4 -15 0 -12 -4 -13 -19 -5 -25 13 -51 13 -51 0
0 -5 12 -13 27 -16 16 -4 32 -9 38 -12 5 -3 20 -7 33 -8 41 -5 52 -12 52 -38
0 -26 15 -35 63 -38 18 0 -24 -5 -93 -9 -69 -4 -171 -6 -227 -4 l-103 4 0 -25
0 -24 1660 0 1660 0 0 390 c-1 252 -4 391 -11 396 -7 4 -7 10 0 18 16 19 14
493 -1 499 -10 4 -10 6 -1 6 10 1 13 211 13 1006 -1 993 -1 1005 -20 1005 -11
0 -20 -4 -20 -10 0 -5 -7 -10 -15 -10 -8 0 -15 5 -15 10 0 7 -141 10 -403 10
-436 0 -437 0 -451 -54 -3 -13 -22 -34 -41 -46 -19 -12 -35 -25 -35 -29 0 -14
25 -61 33 -61 4 0 7 -6 7 -14 0 -20 -23 -26 -35 -9 -9 12 -14 11 -29 -6 -19
-21 -19 -21 7 -21 31 0 43 -16 26 -36 -15 -18 -15 -18 51 -37 30 -9 79 -34
109 -57 29 -22 59 -40 67 -40 16 0 19 -36 4 -45 -6 -4 -8 -10 -5 -15 3 -4 -4
-6 -15 -3 -11 3 -20 11 -20 18 0 16 -25 26 -46 18 -9 -3 -20 0 -25 8 -7 11 -9
11 -9 -2 0 -9 -10 -23 -23 -32 -22 -14 -24 -13 -36 14 -17 39 -102 81 -87 44
8 -21 -15 -55 -37 -55 -17 0 -17 2 -3 15 22 22 9 45 -24 45 -16 0 -32 5 -35
10 -10 16 -33 12 -75 -15 -35 -22 -48 -25 -101 -20 -60 5 -60 5 -71 -26 -23
-67 -32 -1 -32 229 l1 222 -43 0 -42 0 -3 -183 c-4 -204 -6 -210 -71 -222 -23
-4 -54 -25 -90 -59 -47 -44 -53 -53 -41 -65 13 -11 13 -15 1 -23 -8 -5 -4 -6
13 -2 34 7 49 -14 24 -32 -14 -11 -22 -11 -32 -2 -11 9 -21 8 -44 -6 -16 -9
-29 -13 -29 -7 0 5 -11 8 -24 7 -46 -5 -91 -29 -128 -68 -22 -23 -39 -34 -43
-27 -12 19 -53 -31 -60 -72 -6 -34 -10 -39 -42 -45 -19 -4 -38 -3 -42 2 -21
23 -28 82 -30 239 0 94 -6 197 -13 231 -13 71 -1 209 19 209 6 0 15 3 19 8 4
4 25 7 46 7 27 0 38 4 38 15 0 9 -6 12 -17 8 -12 -4 -9 1 7 15 l25 21 -30 1
c-16 0 -40 3 -52 6 -16 4 -23 0 -28 -15 -9 -29 -25 -27 -25 3 0 45 -10 56 -51
56 -36 0 -38 -2 -45 -35 -3 -20 -4 -53 -1 -73 3 -20 2 -61 -2 -89 -4 -29 -4
-56 1 -61 5 -5 8 -22 8 -38 0 -16 -3 -142 -5 -281 l-6 -252 -27 -31 c-19 -21
-42 -33 -73 -38 -37 -7 -41 -9 -21 -16 28 -9 28 -19 0 -31 -16 -7 -22 -18 -20
-34 1 -14 -7 -30 -20 -40 -14 -12 -19 -24 -15 -35 6 -14 19 -17 80 -15 83 3
101 -4 91 -33 -3 -11 -2 -18 2 -15 5 3 9 -69 9 -159 0 -180 -1 -182 -60 -182
-25 0 -35 6 -44 25 -10 21 -17 24 -40 20 -16 -3 -45 -17 -66 -31 -21 -14 -42
-23 -47 -20 -5 3 -6 -5 -2 -20 7 -31 -10 -35 -25 -7 -21 38 -24 99 -7 125 19
29 20 36 6 36 -6 0 -21 9 -33 21 -20 18 -22 29 -19 112 1 50 7 96 12 101 6 6
10 19 10 31 0 12 4 25 9 30 6 6 6 28 1 55 -12 58 -13 180 -2 180 5 0 16 31 25
69 20 80 21 91 7 91 -5 0 -10 -8 -10 -18 0 -32 -31 -82 -53 -86 -12 -3 -35 -8
-52 -11 -90 -19 -85 -19 -85 8 0 14 7 27 15 31 30 11 16 29 -17 22 -33 -7 -51
-23 -41 -39 8 -14 -18 -27 -54 -27 -30 0 -32 -3 -51 -62 l-20 -63 -3 90 c-4
97 -1 105 61 148 16 11 21 20 14 25 -6 4 -13 15 -17 25 -9 25 -26 21 -37 -8
-14 -37 -20 -31 -20 20 0 42 2 45 19 35 11 -5 45 -10 76 -10 l57 0 -16 -25
-16 -25 32 7 c18 3 52 14 76 25 24 10 53 18 65 18 16 0 18 3 9 9 -7 4 -24 6
-38 3 -28 -5 -30 5 -9 62 12 34 11 43 -3 72 -11 24 -22 34 -39 34 -13 0 -23
-4 -23 -10 0 -5 -5 -10 -11 -10 -6 0 -17 -7 -25 -15 -8 -8 -21 -12 -29 -9 -11
5 -15 -2 -15 -25 0 -18 5 -31 13 -31 19 0 -15 -20 -34 -20 -24 0 -34 32 -14
46 8 6 13 18 10 26 -5 12 -12 10 -34 -11 -15 -14 -33 -35 -39 -46 -9 -16 -11
9 -12 116 0 147 2 152 54 162 22 4 30 1 34 -15 3 -12 12 -18 26 -17 39 3 46
-1 46 -26 0 -15 6 -25 14 -25 20 0 30 18 19 33 -14 19 -9 60 7 64 8 2 30 6 48
9 33 6 72 48 72 77 0 11 -11 14 -44 12 -46 -3 -106 -36 -106 -59 0 -16 -93
-14 -113 3 -10 8 -17 9 -22 1 -3 -5 -13 -10 -21 -10 -11 0 -14 15 -14 63 l0
64 33 -4 32 -4 -24 20 c-18 16 -37 21 -83 21 l-59 0 4 -132z m2537 52 c0 -5
-8 -10 -17 -10 -15 0 -16 2 -3 10 19 12 20 12 20 0z m410 -41 c0 -5 -7 -9 -15
-9 -9 0 -15 9 -15 21 0 18 2 19 15 9 8 -7 15 -16 15 -21z m-750 11 c0 -5 -4
-10 -10 -10 -5 0 -10 5 -10 10 0 6 5 10 10 10 6 0 10 -4 10 -10z m390 -15 c0
-8 -4 -15 -10 -15 -5 0 -10 7 -10 15 0 8 5 15 10 15 6 0 10 -7 10 -15z m-92
-7 c19 -19 14 -35 -11 -40 -33 -6 -47 1 -40 20 12 31 32 39 51 20z m-448 -52
c0 -3 -4 -8 -10 -11 -5 -3 -10 -1 -10 4 0 6 5 11 10 11 6 0 10 -2 10 -4z m55
-116 c3 -5 -1 -10 -9 -10 -8 0 -18 5 -21 10 -3 6 1 10 9 10 8 0 18 -4 21 -10z
m58 3 c8 -7 -11 -33 -25 -33 -5 0 -6 5 -3 10 3 6 1 10 -4 10 -6 0 -11 5 -11
10 0 11 33 14 43 3z m-1393 -123 c0 -11 -4 -20 -10 -20 -5 0 -10 9 -10 20 0
11 5 20 10 20 6 0 10 -9 10 -20z m710 -9 c0 -5 -6 -20 -13 -34 -9 -18 -18 -23
-27 -17 -11 7 -10 13 4 34 16 25 36 35 36 17z m885 -9 c-3 -3 -11 0 -18 7 -9
10 -8 11 6 5 10 -3 15 -9 12 -12z m-853 -149 c-2 -41 -6 -73 -8 -70 -8 8 -14
179 -6 191 11 17 17 -39 14 -121z m304 115 c3 -4 22 -8 43 -8 41 0 144 -38
136 -50 -2 -4 -26 -3 -52 1 -26 4 -76 8 -111 8 -61 1 -101 18 -84 36 4 4 -6 5
-23 2 -27 -5 -28 -4 -11 9 21 15 93 16 102 2z m570 -13 c27 -13 59 -32 71 -42
25 -20 93 -128 93 -147 0 -7 5 -17 11 -23 6 -6 14 -45 17 -85 2 -40 8 -78 13
-84 10 -12 1 -54 -12 -54 -11 0 -23 46 -16 64 11 28 -23 159 -57 219 -42 75
-67 99 -128 126 -28 12 -48 27 -48 36 0 19 -3 19 56 -10z m-347 -10 c3 -16 1
-17 -11 -7 -8 6 -32 16 -54 21 l-39 10 50 -2 c41 -2 50 -6 54 -22z m-1269 0
c0 -8 -4 -15 -10 -15 -5 0 -7 7 -4 15 4 8 8 15 10 15 2 0 4 -7 4 -15z m-486
-11 c22 -8 20 -19 -4 -21 -11 -1 -20 4 -20 13 0 16 2 16 24 8z m1951 -4 c3 -5
1 -10 -4 -10 -6 0 -11 5 -11 10 0 6 2 10 4 10 3 0 8 -4 11 -10z m-395 -30 c36
-5 88 -13 115 -16 28 -4 53 -8 57 -10 3 -2 8 1 10 8 3 8 15 6 39 -8 19 -10 36
-22 39 -25 3 -3 25 -13 50 -21 25 -9 44 -21 42 -27 -1 -7 6 -11 15 -9 16 3 19
-10 24 -112 4 -63 7 -166 8 -227 0 -62 3 -113 5 -113 2 0 24 9 50 20 l46 21 0
102 0 102 46 1 46 2 -6 -92 c-8 -124 -8 -120 -19 -128 -6 -4 1 -10 15 -13 15
-4 38 -24 53 -47 21 -31 29 -37 40 -28 10 8 15 8 21 -1 4 -7 2 -15 -4 -17 -7
-2 -12 -10 -12 -18 0 -18 59 -134 69 -134 4 0 18 -30 30 -67 13 -38 32 -80 42
-95 11 -14 17 -32 14 -40 -3 -7 6 -25 19 -40 25 -30 72 -146 62 -155 -7 -7 -4
-13 -41 62 -27 53 -35 62 -75 75 -58 20 -75 31 -85 55 -7 18 -9 18 -12 3 -5
-21 -9 -22 -68 -6 -36 10 -50 10 -65 0 -27 -17 -67 -15 -74 3 -3 8 0 15 7 15
19 0 -16 20 -36 20 -26 0 -33 -28 -11 -45 14 -10 15 -14 5 -15 -8 0 -23 8 -34
18 -23 20 -108 24 -114 5 -3 -8 -14 -11 -29 -7 -27 7 -34 -13 -9 -22 9 -4 20
-15 26 -26 9 -17 8 -19 -10 -13 -12 3 -21 3 -21 -1 0 -18 42 -72 60 -77 22 -6
27 -27 7 -27 -22 0 -56 43 -89 111 -28 59 -30 70 -24 136 5 60 3 74 -10 81
-12 7 -14 14 -6 28 6 12 7 42 1 79 -8 59 -19 92 -66 193 -13 29 -27 76 -30
105 -5 37 -8 46 -13 32 -6 -16 -9 -13 -15 18 -4 20 -11 37 -17 37 -5 0 -7 4
-4 9 3 5 -2 12 -11 15 -15 6 -15 9 -3 16 11 7 9 13 -13 30 -21 17 -26 27 -22
48 4 19 3 22 -3 9 -6 -15 -20 5 -65 95 -31 63 -57 120 -57 126 0 14 24 15 110
2z m1080 -35 c0 -8 -4 -15 -10 -15 -5 0 -7 7 -4 15 4 8 8 15 10 15 2 0 4 -7 4
-15z m-2800 -75 c-8 -5 -17 -7 -19 -4 -3 3 1 9 9 14 8 5 17 7 19 4 3 -3 -1 -9
-9 -14z m897 -106 c-3 -4 -14 1 -23 11 -15 14 -15 18 -3 26 10 6 17 3 23 -11
5 -11 6 -23 3 -26z m1367 16 c9 0 16 -7 16 -16 0 -8 7 -22 15 -30 24 -24 18
-32 -30 -36 l-45 -3 0 60 c1 52 2 58 14 43 7 -10 21 -18 30 -18z m-860 -34
c-3 -9 -10 -16 -15 -16 -11 0 -12 43 -2 54 10 10 24 -20 17 -38z m-746 -130
c-3 -97 -6 -116 -20 -119 -14 -4 -16 6 -13 85 2 50 8 95 14 101 6 6 11 19 11
29 0 10 3 18 6 18 3 0 4 -52 2 -114z m-571 28 c-3 -3 -12 -4 -19 -1 -8 3 -5 6
6 6 11 1 17 -2 13 -5z m1313 -50 c0 -8 -4 -12 -10 -9 -5 3 -10 10 -10 16 0 5
5 9 10 9 6 0 10 -7 10 -16z m-90 -55 l0 -41 19 23 19 24 8 -40 c7 -34 9 -94 4
-155 0 -8 2 -37 6 -63 5 -32 2 -56 -6 -72 -13 -25 -13 -25 -28 -4 -8 11 -20
18 -28 15 -7 -3 -16 -1 -19 4 -9 15 -25 12 -25 -5 0 -18 -5 -18 -32 -4 -30 16
-34 3 -7 -25 13 -14 24 -29 24 -33 1 -18 26 -53 38 -53 16 0 37 -56 37 -99 0
-25 -4 -32 -17 -30 -35 3 -43 -1 -43 -23 -1 -32 -25 -61 -52 -62 -33 -2 -48
-14 -48 -38 0 -15 -5 -19 -20 -15 -27 7 -33 -19 -26 -111 4 -47 3 -83 -4 -92
-8 -13 -10 -12 -11 5 -1 11 -2 26 -2 33 1 23 -22 6 -25 -19 -2 -13 -7 -28 -11
-34 -4 -5 -6 -38 -5 -72 2 -44 -2 -65 -12 -74 -9 -7 -53 -11 -119 -11 -58 0
-105 -4 -105 -9 0 -5 9 -9 20 -9 11 0 20 -4 20 -10 0 -5 -13 -10 -30 -10 -16
0 -30 -4 -30 -10 0 -14 27 -25 95 -39 72 -16 103 -30 64 -31 -15 0 -32 -7 -39
-15 -8 -9 -20 -13 -29 -9 -28 12 -91 22 -86 13 3 -4 27 -15 53 -25 81 -30 94
-53 42 -76 -16 -7 -30 -16 -30 -20 0 -15 21 -17 91 -9 44 6 79 6 89 0 12 -7
11 -10 -7 -15 -29 -8 -29 -17 3 -49 14 -14 22 -30 19 -35 -3 -6 1 -10 10 -10
9 0 14 4 11 9 -3 4 1 17 9 27 8 10 15 35 15 54 1 35 28 80 50 80 6 0 9 4 6 9
-3 5 1 15 10 22 9 7 20 23 25 36 6 17 16 23 39 23 44 0 87 -44 94 -98 8 -53
-9 -48 -24 7 -7 28 -18 41 -46 55 -20 9 -39 15 -42 12 -2 -3 7 -11 22 -17 14
-7 26 -19 26 -28 0 -10 -3 -12 -8 -5 -12 19 -52 27 -52 11 0 -8 -7 -20 -15
-27 -8 -7 -12 -17 -9 -22 4 -6 -6 -20 -22 -33 -26 -21 -27 -25 -19 -60 6 -21
19 -43 30 -49 11 -6 24 -16 30 -23 5 -6 19 -13 30 -16 12 -3 7 -5 -14 -6 -33
-1 -101 32 -101 50 0 5 -5 9 -11 9 -6 0 -8 -7 -5 -16 4 -9 -5 -25 -22 -40
l-27 -25 38 6 c47 8 78 -1 70 -21 -3 -8 1 -14 9 -14 23 0 68 -24 68 -37 0 -6
-6 -14 -12 -16 -7 -3 -3 -6 9 -6 12 -1 25 3 28 9 3 5 40 9 82 9 74 -1 76 0
114 37 22 21 39 43 39 49 0 6 12 18 28 27 l27 17 -27 1 c-28 0 -39 22 -18 35
6 4 8 10 5 15 -7 11 5 60 14 60 18 0 74 -58 101 -105 30 -53 40 -105 19 -105
-7 0 -9 -10 -7 -25 3 -15 1 -25 -7 -25 -6 0 -17 -11 -23 -25 -7 -14 -19 -28
-27 -31 -8 -4 -12 -10 -9 -15 3 -5 -1 -11 -8 -13 -52 -14 -95 -30 -108 -42
-15 -12 -83 -27 -122 -26 -10 1 -18 -3 -18 -7 0 -15 -84 -6 -116 12 -18 9 -51
19 -74 23 -23 4 -44 13 -47 20 -3 8 -14 14 -25 14 -26 0 -143 120 -152 157 -4
15 -13 35 -21 43 -7 8 -16 26 -20 40 -4 14 -18 39 -31 56 -34 44 -54 97 -44
114 6 10 4 21 -7 32 -8 9 -13 24 -10 32 3 8 -1 29 -9 45 -12 23 -16 75 -19
208 -2 98 -7 309 -11 469 -3 160 -3 297 1 303 5 9 12 8 26 -5 21 -19 26 -40 7
-28 -7 4 -8 3 -4 -5 6 -9 11 -9 22 0 7 6 20 9 29 5 17 -6 71 39 56 48 -5 3
-11 1 -13 -6 -2 -6 -10 -8 -16 -4 -9 5 -6 16 13 38 29 34 30 48 11 111 -17 56
-7 62 15 11 11 -25 13 -50 9 -80 -6 -41 2 -60 13 -31 4 9 8 8 16 -3 9 -13 11
-12 11 3 0 15 2 16 14 5 10 -9 11 -15 2 -20 -8 -6 -8 -8 1 -8 6 0 14 4 17 9 3
4 16 6 29 4 17 -4 26 2 35 21 8 17 20 26 35 26 32 0 49 -18 36 -42 -6 -12 -6
-24 1 -37 13 -25 13 -34 0 -26 -6 3 -7 -1 -4 -9 3 -9 18 -16 32 -16 14 0 34
-7 44 -16 14 -14 20 -14 33 -4 8 7 15 19 15 27 0 8 9 27 19 42 13 17 18 37 15
52 -5 20 -4 21 6 9 9 -12 10 -11 5 6 -3 12 1 34 10 50 8 16 15 44 15 62 0 17
5 32 10 32 6 0 10 -18 10 -41z m439 -66 c0 -25 -1 -25 -8 -8 -5 11 -7 23 -4
28 8 14 13 7 12 -20z m-809 13 c0 -2 -7 -7 -16 -10 -8 -3 -12 -2 -9 4 6 10 25
14 25 6z m1780 -6 c0 -5 -8 -10 -17 -10 -15 0 -16 2 -3 10 19 12 20 12 20 0z
m-2055 -10 c-3 -5 -10 -10 -16 -10 -5 0 -9 5 -9 10 0 6 7 10 16 10 8 0 12 -4
9 -10z m2005 -19 c0 -5 -13 -14 -30 -20 -31 -10 -39 -4 -18 17 14 14 48 16 48
3z m-121 -33 c23 -8 23 -9 6 -28 -23 -26 -105 -54 -105 -36 0 7 9 21 19 30 12
11 17 25 13 38 -5 21 1 21 67 -4z m-1333 -25 c-19 -10 -31 -11 -46 -3 -29 16
-25 18 26 17 46 0 46 0 20 -14z m-34 -45 c-7 -7 -12 -8 -12 -2 0 6 3 14 7 17
3 4 9 5 12 2 2 -3 -1 -11 -7 -17z m428 -28 c-9 -6 -4 -13 16 -26 31 -20 54
-47 66 -76 9 -22 -8 -34 -19 -13 -5 9 -26 18 -46 22 -31 5 -41 2 -57 -17 -11
-13 -20 -31 -20 -41 0 -10 -4 -20 -9 -23 -4 -3 -11 -24 -15 -46 -7 -46 -19
-50 -42 -15 -12 19 -15 43 -13 109 5 104 20 126 86 126 23 0 43 5 43 11 0 5 5
7 11 3 8 -5 8 -9 -1 -14z m955 -31 c4 -6 -2 -19 -13 -29 -19 -18 -21 -18 -36
-1 -22 24 -20 34 4 26 11 -4 20 -2 20 4 0 14 17 14 25 0z m-1895 -89 c0 -22
-4 -40 -10 -40 -5 0 -10 18 -10 40 0 22 5 40 10 40 6 0 10 -18 10 -40z m736
-30 c0 -11 -4 -20 -8 -20 -4 0 -8 9 -8 20 0 11 4 20 8 20 4 0 8 -9 8 -20z
m-1309 -52 c-3 -8 -6 -5 -6 6 -1 11 2 17 5 13 3 -3 4 -12 1 -19z m1838 2 c3
-5 -3 -10 -15 -10 -12 0 -18 5 -15 10 3 6 10 10 15 10 5 0 12 -4 15 -10z
m-1745 -46 c13 -29 17 -51 11 -61 -6 -11 -10 -4 -15 26 -3 22 -11 41 -16 41
-6 0 -10 9 -10 20 0 31 9 24 30 -26z m480 10 c0 -8 -4 -12 -10 -9 -5 3 -10 10
-10 16 0 5 5 9 10 9 6 0 10 -7 10 -16z m-533 -76 c-3 -8 -6 -5 -6 6 -1 11 2
17 5 13 3 -3 4 -12 1 -19z m1145 -60 c-7 -7 -12 -8 -12 -2 0 6 3 14 7 17 3 4
9 5 12 2 2 -3 -1 -11 -7 -17z m885 -4 c-3 -3 -12 -4 -19 -1 -8 3 -5 6 6 6 11
1 17 -2 13 -5z m-1897 -121 c0 -3 -11 -21 -24 -38 -29 -38 -47 -93 -26 -80 10
6 11 -1 6 -31 -19 -104 -74 -147 -88 -69 -10 57 0 152 18 181 9 13 26 24 38
24 11 0 28 5 36 10 17 11 40 13 40 3z m-520 -8 c0 -12 -92 -97 -98 -91 -3 4
16 27 43 51 50 45 55 49 55 40z m1418 -46 c-31 -20 -41 4 -10 27 14 11 18 10
20 -3 2 -9 -2 -19 -10 -24z m72 -3 c0 -3 -4 -8 -10 -11 -5 -3 -10 -1 -10 4 0
6 5 11 10 11 6 0 10 -2 10 -4z m-45 -16 c3 -5 1 -10 -4 -10 -6 0 -11 5 -11 10
0 6 2 10 4 10 3 0 8 -4 11 -10z m1268 -47 c-7 -2 -19 -2 -25 0 -7 3 -2 5 12 5
14 0 19 -2 13 -5z m305 -20 c-16 -2 -40 -2 -55 0 -16 2 -3 4 27 4 30 0 43 -2
28 -4z m-141 -35 c-3 -8 -6 -5 -6 6 -1 11 2 17 5 13 3 -3 4 -12 1 -19z m51
-95 c13 -20 26 -49 29 -65 3 -15 9 -28 14 -28 10 0 59 -103 59 -124 0 -9 5
-16 10 -16 6 0 10 -9 10 -21 0 -27 -16 -16 -34 24 -7 18 -25 58 -40 89 -14 32
-28 69 -32 83 -6 26 -24 35 -24 13 -1 -22 -29 36 -30 60 0 31 11 27 38 -15z
m-1571 -55 c-3 -8 -6 -5 -6 6 -1 11 2 17 5 13 3 -3 4 -12 1 -19z m-1310 -80
c-3 -8 -6 -5 -6 6 -1 11 2 17 5 13 3 -3 4 -12 1 -19z m20 -40 c-3 -8 -6 -5 -6
6 -1 11 2 17 5 13 3 -3 4 -12 1 -19z m13 -76 c0 -20 -4 -31 -10 -27 -5 3 -10
25 -10 48 0 31 3 38 10 27 5 -8 10 -30 10 -48z m2459 12 c3 -3 0 -9 -5 -14 -7
-7 -17 -3 -30 11 -19 22 -19 22 6 14 14 -4 27 -9 29 -11z m-1234 -4 c3 -5 1
-10 -4 -10 -6 0 -11 5 -11 10 0 6 2 10 4 10 3 0 8 -4 11 -10z m305 -10 c0 -5
-4 -10 -10 -10 -5 0 -10 5 -10 10 0 6 5 10 10 10 6 0 10 -4 10 -10z m1440 -40
c0 -5 -2 -10 -4 -10 -3 0 -8 5 -11 10 -3 6 -1 10 4 10 6 0 11 -4 11 -10z
m-509 -60 c19 0 19 -1 5 -16 -9 -8 -16 -32 -17 -52 -1 -29 -4 -22 -15 32 -7
38 -10 74 -6 80 4 6 8 -1 10 -16 2 -20 9 -28 23 -28z m-1025 -26 c-4 -13 -11
-24 -17 -24 -8 0 -7 5 1 15 7 8 10 22 6 30 -3 8 -2 23 2 33 6 14 7 13 10 -7 2
-12 1 -34 -2 -47z m1544 41 c0 -8 -2 -15 -4 -15 -2 0 -6 7 -10 15 -3 8 -1 15
4 15 6 0 10 -7 10 -15z m-1585 -15 c-3 -5 -12 -10 -18 -10 -7 0 -6 4 3 10 19
12 23 12 15 0z m752 -72 c-3 -8 -6 -5 -6 6 -1 11 2 17 5 13 3 -3 4 -12 1 -19z
m-732 -14 c-9 -9 -18 -14 -21 -11 -9 9 6 27 22 27 13 0 13 -2 -1 -16z m1075
-24 c0 -5 -4 -10 -10 -10 -5 0 -10 5 -10 10 0 6 5 10 10 10 6 0 10 -4 10 -10z
m-1550 -40 c0 -5 -4 -10 -10 -10 -5 0 -10 5 -10 10 0 6 5 10 10 10 6 0 10 -4
10 -10z m-1012 -18 c6 -1 12 -8 12 -14 -1 -16 -35 -58 -48 -58 -13 0 -62 50
-62 64 0 9 53 14 98 8z m2592 -12 c0 -5 -9 -10 -19 -10 -12 0 -21 -10 -26 -27
-5 -21 -8 -24 -15 -12 -6 8 -6 15 0 17 6 2 10 10 10 17 0 8 10 16 23 18 12 2
23 5 25 6 1 0 2 -3 2 -9z m-1833 -52 c-3 -7 -5 -2 -5 12 0 14 2 19 5 13 2 -7
2 -19 0 -25z m-641 -5 c-10 -10 -19 5 -10 18 6 11 8 11 12 0 2 -7 1 -15 -2
-18z m141 -191 c3 -89 1 -122 -6 -112 -12 16 -15 258 -4 247 3 -4 8 -64 10
-135z m186 71 c27 -10 47 -23 48 -32 0 -11 2 -12 6 -3 10 25 34 11 52 -30 28
-67 31 -102 20 -210 -12 -120 -7 -158 22 -151 10 3 19 0 19 -6 0 -6 -7 -11
-16 -11 -8 0 -13 -4 -9 -9 3 -5 1 -12 -5 -16 -17 -11 -11 -23 15 -29 14 -4 25
-14 26 -24 1 -33 18 21 18 61 1 21 5 36 10 33 10 -6 20 36 17 74 -1 19 -7 25
-24 24 -19 0 -22 4 -22 43 0 30 4 43 14 43 21 0 41 30 38 56 -4 25 13 33 21
12 3 -8 6 -6 6 5 1 10 9 17 21 17 15 0 20 -7 20 -25 0 -14 -4 -25 -10 -25 -17
0 -12 -96 5 -110 14 -12 12 -15 -12 -31 -15 -11 -22 -19 -15 -19 10 0 12 -22
7 -100 l-6 -100 90 0 c49 0 92 -4 95 -9 6 -9 -125 -23 -214 -23 -253 1 -360 7
-355 20 3 8 5 27 5 44 0 21 6 31 20 35 21 6 29 45 8 41 -7 -2 -12 2 -13 7 0 6
-4 15 -7 21 -17 27 -26 175 -13 223 7 29 9 54 4 62 -17 27 -9 50 20 60 43 15
47 36 8 45 -43 9 -46 11 -40 34 7 26 59 27 126 3z m2477 -48 c0 -20 -31 -33
-60 -25 l-25 6 34 22 c36 22 51 21 51 -3z m-170 -88 c0 -14 27 -40 53 -50 9
-3 17 -13 17 -22 0 -24 -36 -18 -54 9 -8 14 -25 27 -36 31 -16 5 -18 10 -10
26 12 22 30 26 30 6z m-67 -9 c23 -3 22 -15 -3 -28 -27 -15 -25 -39 5 -50 32
-12 31 -21 -1 -59 -24 -29 -25 -34 -14 -61 7 -16 16 -28 20 -25 4 2 13 -7 21
-21 7 -14 21 -30 31 -35 10 -5 18 -16 18 -24 0 -7 14 -23 31 -35 17 -13 28
-28 25 -36 -3 -8 1 -14 9 -14 8 0 15 -4 15 -10 0 -12 -15 -13 -58 -4 -24 5
-34 14 -42 40 -7 19 -18 34 -26 34 -8 0 -14 6 -14 13 0 7 -11 23 -25 35 -14
12 -25 29 -25 37 0 13 -18 20 -42 16 -5 0 -8 6 -8 14 0 16 -38 40 -48 30 -12
-12 -30 169 -19 183 10 12 62 12 150 0z m196 -3 c16 -8 31 -25 33 -39 l5 -25
-38 30 c-54 43 -54 62 0 34z m-1709 -29 c0 -10 -32 -36 -43 -36 -7 0 -6 4 3
10 8 5 11 10 7 10 -15 0 4 20 19 20 8 0 14 -2 14 -4z m-560 -36 c0 -5 -2 -10
-4 -10 -3 0 -8 5 -11 10 -3 6 -1 10 4 10 6 0 11 -4 11 -10z m416 -24 c12 -25
0 -61 -17 -51 -11 7 -12 75 -1 75 4 0 12 -11 18 -24z m410 -76 c14 -40 14 -45
-2 -57 -14 -10 -15 -18 -6 -55 11 -44 9 -59 -8 -42 -10 10 -15 98 -10 189 1
28 4 41 7 30 3 -11 11 -40 19 -65z m-1177 -32 c-1 -47 -3 -57 -9 -38 -12 36
-12 100 0 100 6 0 10 -27 9 -62z m2308 -24 c-3 -3 -12 -4 -19 -1 -8 3 -5 6 6
6 11 1 17 -2 13 -5z m423 -39 c13 -15 14 -14 -35 -30 -10 -3 -15 2 -15 14 0
33 28 42 50 16z m-140 -21 c0 -8 -4 -12 -10 -9 -5 3 -10 10 -10 16 0 5 5 9 10
9 6 0 10 -7 10 -16z m-263 -40 c-3 -3 -12 -4 -19 -1 -8 3 -5 6 6 6 11 1 17 -2
13 -5z m110 -46 c-3 -8 -6 -5 -6 6 -1 11 2 17 5 13 3 -3 4 -12 1 -19z m-1142
-55 c133 -11 22 -22 -215 -22 -228 1 -294 6 -235 20 37 8 356 10 450 2z m753
0 c-10 -2 -26 -2 -35 0 -10 3 -2 5 17 5 19 0 27 -2 18 -5z m289 1 c-3 -3 -12
-4 -19 -1 -8 3 -5 6 6 6 11 1 17 -2 13 -5z m-2287 -14 c0 -5 -11 -10 -25 -10
-14 0 -25 5 -25 10 0 6 11 10 25 10 14 0 25 -4 25 -10z m1858 0 c-10 -6 -25
-7 -40 -1 -20 9 -18 10 17 10 31 0 36 -2 23 -9z m-1171 -12 c-21 -7 -32 -7
-40 1 -8 8 0 11 29 10 39 -1 39 -1 11 -11z"/>
<path d="M2660 2141 c-27 -27 -51 -46 -55 -43 -3 4 -3 -1 0 -9 4 -11 -1 -18
-16 -22 -14 -4 -20 -11 -16 -21 4 -9 3 -16 -2 -16 -9 0 -23 -41 -16 -49 11
-10 149 151 159 187 11 33 0 27 -54 -27z"/>
<path d="M2783 2153 c-3 -10 -12 -22 -20 -26 -7 -4 -13 -14 -13 -21 0 -8 -7
-19 -15 -26 -15 -12 -11 -25 17 -61 15 -18 88 -35 88 -20 0 5 -12 11 -27 13
-35 4 -45 37 -14 45 11 3 19 9 16 13 -3 4 2 11 11 14 14 5 14 7 0 22 -9 8 -16
24 -16 34 0 26 -19 35 -27 13z"/>
<path d="M2416 2024 c-4 -9 -4 -19 -1 -22 2 -3 7 3 11 12 4 9 4 19 1 22 -2 3
-7 -3 -11 -12z"/>
<path d="M2520 1965 c0 -9 6 -12 15 -9 8 4 12 10 9 15 -8 14 -24 10 -24 -6z"/>
<path d="M2870 1971 c0 -12 25 -38 42 -44 7 -2 10 -8 6 -12 -5 -5 -16 -1 -26
8 -26 24 -35 21 -28 -8 5 -21 2 -26 -20 -31 -26 -7 -26 -8 -8 -21 11 -8 31
-12 46 -9 25 5 54 -11 96 -51 22 -21 22 -15 1 22 -18 30 -25 50 -28 77 -1 4
-15 23 -32 43 -30 34 -49 44 -49 26z"/>
<path d="M2622 1946 c2 -13 -8 -21 -35 -31 -49 -17 -57 -25 -25 -25 49 0 89
12 84 26 -4 9 9 13 49 13 30 0 62 4 72 10 14 8 5 10 -42 11 -33 0 -70 3 -83 6
-19 5 -23 3 -20 -10z"/>
<path d="M1490 2210 c0 -5 5 -10 11 -10 5 0 7 5 4 10 -3 6 -8 10 -11 10 -2 0
-4 -4 -4 -10z"/>
<path d="M1400 2160 c-13 -9 -13 -10 0 -10 8 0 22 5 30 10 13 9 13 10 0 10 -8
0 -22 -5 -30 -10z"/>
<path d="M1255 2101 c-6 -11 9 -23 19 -14 9 9 7 23 -3 23 -6 0 -12 -4 -16 -9z"/>
<path d="M1537 1534 c-4 -4 -7 -14 -7 -23 0 -11 3 -12 11 -4 6 6 10 16 7 23
-2 6 -7 8 -11 4z"/>
<path d="M1400 1334 c0 -8 5 -12 10 -9 6 4 8 11 5 16 -9 14 -15 11 -15 -7z"/>
<path d="M1565 808 c-75 -26 -119 -58 -80 -58 27 0 115 43 115 57 0 7 -1 13
-2 12 -2 -1 -16 -6 -33 -11z"/>
<path d="M874 364 c3 -9 6 -18 6 -20 0 -2 6 -4 14 -4 9 0 12 7 9 20 -3 11 -12
20 -20 20 -10 0 -13 -6 -9 -16z"/>
<path d="M731 202 c-1 -9 -8 -11 -21 -7 -12 4 -20 2 -20 -5 0 -8 -15 -11 -45
-8 -31 2 -45 -1 -45 -9 0 -13 37 -17 110 -13 43 2 43 2 31 31 -5 13 -10 18
-10 11z"/>
<path d="M875 80 c-3 -5 3 -10 14 -10 11 0 23 5 26 10 3 6 -3 10 -14 10 -11 0
-23 -4 -26 -10z"/>
<path d="M600 3306 c0 -9 7 -16 16 -16 17 0 14 22 -4 28 -7 2 -12 -3 -12 -12z"/>
<path d="M2230 3280 c0 -5 -9 -10 -20 -10 -11 0 -23 -8 -26 -17 -3 -10 -9 -25
-14 -35 -7 -12 -3 -20 14 -32 28 -18 36 -12 36 23 0 14 7 35 15 45 17 23 19
36 5 36 -5 0 -10 -4 -10 -10z"/>
<path d="M20 3255 c0 -8 -4 -15 -10 -15 -5 0 -10 -11 -10 -24 0 -22 4 -24 35
-22 46 4 48 7 29 44 -16 33 -44 44 -44 17z"/>
<path d="M2245 3180 c3 -5 8 -10 11 -10 2 0 4 5 4 10 0 6 -5 10 -11 10 -5 0
-7 -4 -4 -10z"/>
<path d="M760 3166 c0 -2 9 -6 20 -9 11 -3 20 -1 20 4 0 5 -9 9 -20 9 -11 0
-20 -2 -20 -4z"/>
<path d="M13 3143 c-7 -2 -13 -15 -13 -27 0 -19 4 -21 35 -18 37 4 53 18 39
32 -13 11 -47 19 -61 13z"/>
<path d="M1015 3010 c-50 -43 -60 -48 -52 -26 5 12 1 13 -15 7 -24 -9 -37 -31
-18 -31 8 0 7 -8 -4 -25 -9 -14 -14 -25 -10 -25 8 0 91 68 132 108 46 45 22
40 -33 -8z"/>
<path d="M185 2988 c2 -29 30 -35 44 -10 8 16 7 21 -5 26 -29 11 -41 6 -39
-16z"/>
<path d="M800 2990 c0 -5 5 -10 10 -10 6 0 10 5 10 10 0 6 -4 10 -10 10 -5 0
-10 -4 -10 -10z"/>
<path d="M220 2880 c0 -5 4 -10 9 -10 6 0 13 5 16 10 3 6 -1 10 -9 10 -9 0
-16 -4 -16 -10z"/>
<path d="M95 2850 c-3 -5 1 -10 10 -10 9 0 13 5 10 10 -3 6 -8 10 -10 10 -2 0
-7 -4 -10 -10z"/>
<path d="M0 2749 c0 -37 4 -58 10 -54 5 3 10 17 10 31 0 14 6 27 14 30 12 5
13 11 4 30 -21 45 -38 29 -38 -37z"/>
<path d="M188 2775 c-11 -11 4 -52 23 -63 18 -11 19 -9 19 28 0 32 -4 40 -18
40 -10 0 -21 -2 -24 -5z"/>
<path d="M1515 2750 c4 -6 11 -8 16 -5 14 9 11 15 -7 15 -8 0 -12 -5 -9 -10z"/>
<path d="M255 2727 c-4 -10 -5 -21 -1 -24 10 -10 18 4 13 24 -4 17 -4 17 -12
0z"/>
<path d="M67 2719 c-9 -6 -17 -19 -17 -30 0 -24 -29 -37 -41 -18 -5 8 -8 -107
-8 -281 0 -162 3 -289 6 -282 4 10 10 9 26 -5 19 -17 20 -17 14 0 -4 11 -1 17
8 17 8 0 15 -7 15 -15 0 -18 21 -20 38 -3 17 17 15 48 -4 48 -8 0 -25 -5 -36
-11 -20 -11 -21 -9 -14 21 8 41 23 60 47 60 14 0 19 7 19 28 0 15 -4 34 -10
42 -5 9 -5 19 1 26 7 9 5 15 -7 22 -17 9 -17 11 0 37 10 15 18 44 18 64 0 20
-1 86 -1 147 0 93 -3 113 -18 127 -13 11 -23 13 -36 6z"/>
<path d="M261 2644 c0 -11 3 -14 6 -6 3 7 2 16 -1 19 -3 4 -6 -2 -5 -13z"/>
<path d="M210 2570 c0 -31 -4 -50 -12 -50 -6 0 -9 -2 -6 -5 3 -3 13 -3 22 1
12 4 16 19 16 55 0 27 -4 49 -10 49 -5 0 -10 -22 -10 -50z"/>
<path d="M191 2584 c0 -11 3 -14 6 -6 3 7 2 16 -1 19 -3 4 -6 -2 -5 -13z"/>
<path d="M251 2527 c-1 -11 -10 -21 -21 -24 -23 -6 -43 -64 -34 -100 7 -25 11
-22 57 39 27 34 27 38 13 70 -9 21 -15 27 -15 15z m-37 -102 c-4 -8 -8 -15
-10 -15 -2 0 -4 7 -4 15 0 8 4 15 10 15 5 0 7 -7 4 -15z"/>
<path d="M470 2249 c0 -5 5 -7 10 -4 6 3 10 8 10 11 0 2 -4 4 -10 4 -5 0 -10
-5 -10 -11z"/>
<path d="M540 2233 c1 -11 26 -43 33 -43 4 0 1 11 -5 25 -10 23 -28 35 -28 18z"/>
<path d="M591 2174 c0 -11 3 -14 6 -6 3 7 2 16 -1 19 -3 4 -6 -2 -5 -13z"/>
<path d="M835 2009 c-4 -6 -5 -12 -2 -15 2 -3 7 2 10 11 7 17 1 20 -8 4z"/>
<path d="M91 1971 c-1 -8 -8 -11 -21 -8 -11 3 -20 2 -20 -3 0 -4 -10 -7 -22
-6 -22 1 -23 -2 -26 -111 -3 -110 -2 -111 19 -106 18 5 20 3 14 -16 -3 -12 -2
-21 4 -21 10 0 27 83 23 107 -2 7 7 44 19 82 11 39 19 76 16 83 -4 10 -6 10
-6 -1z"/>
<path d="M3 1610 c-1 -33 2 -60 7 -60 11 0 24 84 16 105 -12 32 -22 13 -23
-45z"/>
<path d="M0 1471 c0 -49 9 -62 33 -50 16 9 19 9 14 -3 -3 -8 -1 -21 4 -29 6
-10 9 -3 9 21 0 23 -8 45 -24 63 -30 34 -36 34 -36 -2z"/>
<path d="M0 1263 c0 -13 5 -23 10 -23 13 0 13 11 0 30 -8 12 -10 11 -10 -7z"/>
<path d="M120 170 c0 -15 7 -20 25 -20 29 0 32 8 8 26 -25 19 -33 17 -33 -6z"/>
<path d="M180 101 c0 -20 26 -36 35 -21 8 13 -6 40 -21 40 -8 0 -14 -9 -14
-19z"/>
</g>
</svg>
